<?xml version="1.0" encoding="UTF-8" standalone="no"?>
<svg
   xmlns:dc="http://purl.org/dc/elements/1.1/"
   xmlns:cc="http://creativecommons.org/ns#"
   xmlns:rdf="http://www.w3.org/1999/02/22-rdf-syntax-ns#"
   xmlns:svg="http://www.w3.org/2000/svg"
   xmlns="http://www.w3.org/2000/svg"
   xmlns:sodipodi="http://sodipodi.sourceforge.net/DTD/sodipodi-0.dtd"
   xmlns:inkscape="http://www.inkscape.org/namespaces/inkscape"
   version="1.1"
   id="Capa_1"
   x="0px"
   y="0px"
   width="510px"
   height="510px"
   viewBox="0 0 510 510"
   style="enable-background:new 0 0 510 510;"
   xml:space="preserve"
   sodipodi:docname="logotipo-de-gmail.svg"
   inkscape:version="1.0 (b51213c273, 2020-08-10)"><metadata
   id="metadata184"><rdf:RDF><cc:Work
       rdf:about=""><dc:format>image/svg+xml</dc:format><dc:type
         rdf:resource="http://purl.org/dc/dcmitype/StillImage" /><dc:title></dc:title></cc:Work></rdf:RDF></metadata><defs
   id="defs182" /><sodipodi:namedview
   pagecolor="#ffffff"
   bordercolor="#666666"
   borderopacity="1"
   objecttolerance="10"
   gridtolerance="10"
   guidetolerance="10"
   inkscape:pageopacity="0"
   inkscape:pageshadow="2"
   inkscape:window-width="1314"
   inkscape:window-height="704"
   id="namedview180"
   showgrid="false"
   inkscape:zoom="1.0941176"
   inkscape:cx="187.98297"
   inkscape:cy="254.08602"
   inkscape:window-x="52"
   inkscape:window-y="27"
   inkscape:window-maximized="1"
   inkscape:current-layer="g147" />
<g
   id="g147">
	<g
   id="gmail"
   style="fill:#e3dbdb">
		<path
   d="M459,51H51C22.95,51,0,73.95,0,102v306c0,28.05,22.95,51,51,51h408c28.05,0,51-22.95,51-51V102    C510,73.95,487.05,51,459,51z M459,408h-51V183.6l-153,96.9l-153-96.9V408H51V102h30.6L255,209.1L428.4,102H459V408z"
   id="path144"
   style="fill:#e3dbdb" />
	</g>
<path
   style="fill:#916f6f;stroke-width:0.913979"
   d="M 38.547482,456.91711 C 19.970864,452.02872 5.5322776,436.72535 1.5353715,417.68817 c -2.01832471,-9.61323 -2.01832471,-315.76311 0,-325.376342 C 5.5756422,73.06811 20.090845,57.834731 38.968003,53.027122 c 4.793109,-1.220703 30.76018,-1.387337 216.192387,-1.387337 233.52271,0 215.23047,-0.485595 227.65527,6.043453 11.71632,6.156754 21.60538,18.771744 25.03383,31.934456 1.22749,4.712683 1.39692,24.770496 1.39692,165.382306 0,140.61182 -0.16943,160.66962 -1.39692,165.38231 -3.42845,13.1627 -13.31751,25.7777 -25.03383,31.93445 -12.43038,6.53199 5.94365,6.04996 -228.0758,5.98331 C 73.515117,458.24844 42.861613,458.05236 38.547482,456.91711 Z M 102.52598,296.58602 c 0,-61.32796 0.22675,-111.50537 0.50387,-111.50537 0.27714,0 34.58928,21.58672 76.24923,47.9705 l 75.74533,47.97051 76.1567,-48.24241 76.1567,-48.2424 0.2321,111.77727 0.2321,111.77728 h 25.58779 25.58779 V 255 101.9086 l -15.76613,0.0366 -15.76613,0.0366 -86.22253,53.3054 -86.22253,53.30541 -86.3481,-53.34202 -86.3481,-53.34202 H 66.366636 50.429203 V 255 408.0914 h 26.048387 26.04839 z"
   id="path1009" /><path
   style="fill:#edead0;stroke-width:0.913979;fill-opacity:1"
   d="M 40.498781,456.50526 C 32.81676,455.38836 22.996255,450.01927 16.194571,443.21757 8.0225584,435.04557 3.2282829,425.29893 1.8385957,414.03226 0.41410361,402.48341 0.41410361,107.51659 1.8385957,95.967742 4.4248556,75.000044 20.807734,57.092028 40.832429,53.343839 49.037853,51.807961 453.13219,51.737021 466.16237,53.26917 c 12.24864,1.440254 18.13037,4.400786 27.55305,13.868681 7.31704,7.352147 11.81732,15.007852 13.72387,23.346533 1.49132,6.522594 1.49132,322.508636 0,329.031236 -1.90655,8.33868 -6.40683,15.99438 -13.72387,23.34653 -9.28356,9.3281 -15.41083,12.46859 -26.63311,13.65062 -10.25307,1.07994 -419.153546,1.07274 -426.583529,-0.007 z M 102.65788,352.5672 c 0.0726,-30.5383 0.38101,-80.48006 0.68549,-110.98168 l 0.55357,-55.45749 13.25269,8.29963 c 7.28898,4.56479 41.11474,25.92187 75.16835,47.46018 34.05361,21.5383 62.30637,39.16055 62.78389,39.16055 0.47753,0 34.62519,-21.3871 75.88369,-47.52688 41.2585,-26.13979 75.21341,-47.52689 75.45536,-47.52689 0.24194,0 0.4399,45.58925 0.4399,101.30944 0,55.72019 0.26814,105.69196 0.59588,111.04839 l 0.59588,9.73895 h 25.45251 25.4525 V 255 101.9086 l -16.22312,0.0144 -16.22312,0.0144 -85.74175,53.0308 -85.74175,53.03081 L 169.16872,154.95378 83.289599,101.9086 H 66.8594 50.429203 V 255 408.0914 h 26.048387 26.04839 z"
   id="path1011" /></g>
<g
   id="g149">
</g>
<g
   id="g151">
</g>
<g
   id="g153">
</g>
<g
   id="g155">
</g>
<g
   id="g157">
</g>
<g
   id="g159">
</g>
<g
   id="g161">
</g>
<g
   id="g163">
</g>
<g
   id="g165">
</g>
<g
   id="g167">
</g>
<g
   id="g169">
</g>
<g
   id="g171">
</g>
<g
   id="g173">
</g>
<g
   id="g175">
</g>
<g
   id="g177">
</g>
</svg>
